<svg width="20" height="17" viewBox="0 0 20 17" fill="none" xmlns="http://www.w3.org/2000/svg">
<path d="M19.5556 2.32701C18.8283 2.64382 18.0534 2.85382 17.2456 2.95578C18.0767 2.46296 18.711 1.68852 19.0092 0.755072C18.2343 1.21391 17.3788 1.53801 16.467 1.71887C15.7312 0.940792 14.6826 0.458893 13.5386 0.458893C11.319 0.458893 9.53211 2.24811 9.53211 4.44154C9.53211 4.75714 9.559 5.0606 9.625 5.3495C6.292 5.18806 3.34278 3.60155 1.36156 1.18478C1.01567 1.78078 0.812778 2.46296 0.812778 3.19734C0.812778 4.57627 1.52778 5.79862 2.59356 6.5063C1.94944 6.49416 1.31756 6.30844 0.782222 6.0159C0.782222 6.02804 0.782222 6.04382 0.782222 6.0596C0.782222 7.99448 2.17189 9.60162 3.99422 9.97184C3.66789 10.0605 3.31222 10.1029 2.94311 10.1029C2.68644 10.1029 2.42733 10.0884 2.18411 10.035C2.70356 11.6118 4.17756 12.771 5.93022 12.8086C4.56622 13.8683 2.83433 14.5068 0.959444 14.5068C0.630667 14.5068 0.315333 14.4922 0 14.4522C1.77589 15.5895 3.88056 16.239 6.15022 16.239C13.5276 16.239 17.5609 10.1697 17.5609 4.90887C17.5609 4.73286 17.5548 4.56292 17.5462 4.3942C18.3419 3.8334 19.0104 3.13301 19.5556 2.32701Z" fill="white"/>
</svg>
