<svg width="24" height="25" viewBox="0 0 24 25" fill="none" xmlns="http://www.w3.org/2000/svg">
<path d="M10.1703 19.971C10.3197 19.9715 10.4673 19.9385 10.6023 19.8745C10.7373 19.8105 10.8562 19.717 10.9503 19.601L15.7803 13.601C15.9274 13.422 16.0078 13.1976 16.0078 12.966C16.0078 12.7344 15.9274 12.5099 15.7803 12.331L10.7803 6.33098C10.6106 6.12676 10.3667 5.99834 10.1022 5.97396C9.83782 5.94958 9.57454 6.03124 9.37032 6.20098C9.16611 6.37072 9.03768 6.61463 9.0133 6.87906C8.98892 7.14348 9.07058 7.40676 9.24032 7.61098L13.7103 12.971L9.39032 18.331C9.26804 18.4778 9.19036 18.6565 9.16648 18.8461C9.1426 19.0356 9.17352 19.228 9.25558 19.4006C9.33763 19.5731 9.46739 19.7185 9.6295 19.8196C9.79161 19.9207 9.97929 19.9732 10.1703 19.971Z" fill="white"/>
</svg>
