<svg width="20" height="20" viewBox="0 0 20 20" fill="none" xmlns="http://www.w3.org/2000/svg">
<path fill-rule="evenodd" clip-rule="evenodd" d="M2.97723 2L1.87804 3.08126L16.0227 17L17.1219 15.9184L2.97723 2V2Z" fill="black" fill-opacity="0.6"/>
<path d="M4.20032 5.36629L5.23492 6.38433C4.10236 7.33323 3.20051 8.51437 2.61773 9.54778L2.61595 9.55127C4.23901 12.2216 6.81431 14.7452 10.0647 14.3624C10.942 14.2591 11.7605 13.964 12.5083 13.5417L13.5557 14.572C12.098 15.4926 10.4271 15.9801 8.6166 15.7392C5.35204 15.3047 2.68268 12.67 1 9.57572C1.79005 8.01146 2.87079 6.51495 4.20032 5.36629V5.36629ZM6.55345 3.85756C7.4663 3.45733 8.45405 3.22194 9.50887 3.20517C9.56744 3.20482 10.2627 3.2373 10.5779 3.28829C10.7756 3.32042 10.9726 3.36059 11.1667 3.41053C14.2634 4.20436 16.5576 6.78038 18 9.43428C17.3949 10.6367 16.6023 11.8102 15.6572 12.8157L14.6538 11.8283C15.3519 11.0879 15.934 10.2637 16.3823 9.46431C16.3823 9.46431 15.9315 8.75116 15.5897 8.30343C15.37 8.01565 15.139 7.73626 14.8962 7.46699C14.7046 7.25465 13.9603 6.53346 13.7832 6.38329C12.5949 5.37782 11.1997 4.58887 9.52626 4.60215C8.87818 4.61227 8.25494 4.738 7.66328 4.94964L6.55345 3.85756V3.85756Z" fill="black" fill-opacity="0.6"/>
<path fill-rule="evenodd" clip-rule="evenodd" d="M7.01662 8.13799L7.8153 8.92357L10.8895 11.9486C10.4785 12.1756 10.0043 12.3048 9.5 12.3048C7.92948 12.3048 6.6546 11.0503 6.6546 9.50493C6.6546 9.00866 6.78628 8.54242 7.01662 8.13799ZM9.44747 6.70575C9.46487 6.7054 9.48261 6.70505 9.5 6.70505C11.0705 6.70505 12.3454 7.95988 12.3454 9.50493C12.3454 9.52239 12.3454 9.53951 12.345 9.55662L9.44747 6.70575Z" fill="black" fill-opacity="0.6"/>
</svg>
