<svg width="10" height="26" viewBox="0 0 10 26" fill="none" xmlns="http://www.w3.org/2000/svg">
<g clip-path="url(#clip0_12_1005)">
<path d="M8.6556 13.992C8.74861 14.085 8.79511 14.1919 8.79511 14.3129C8.79511 14.4338 8.74861 14.5407 8.6556 14.6337L2.15448 21.1348C2.06148 21.2279 1.95452 21.2744 1.83361 21.2744C1.71271 21.2744 1.60575 21.2279 1.51274 21.1348L0.815199 20.4373C0.722193 20.3443 0.67569 20.2373 0.67569 20.1164C0.67569 19.9955 0.722193 19.8886 0.815199 19.7956L6.2979 14.3129L0.815199 8.83016C0.722193 8.73715 0.67569 8.63019 0.67569 8.50929C0.67569 8.38838 0.722193 8.28142 0.815199 8.18842L1.51274 7.49087C1.60575 7.39787 1.71271 7.35136 1.83361 7.35136C1.95452 7.35136 2.06148 7.39787 2.15448 7.49087L8.6556 13.992Z" fill="#A9A1A0"/>
</g>
<defs>
<clipPath id="clip0_12_1005">
<rect width="8.94" height="25" fill="white" transform="matrix(1 0 0 -1 0.669983 25.92)"/>
</clipPath>
</defs>
</svg>
