<svg width="10" height="26" viewBox="0 0 10 26" fill="none" xmlns="http://www.w3.org/2000/svg">
<g clip-path="url(#clip0_11_377)">
<path d="M8.1556 14.002C8.24861 14.095 8.29511 14.2019 8.29511 14.3229C8.29511 14.4438 8.24861 14.5507 8.1556 14.6437L1.65448 21.1448C1.56148 21.2378 1.45452 21.2843 1.33361 21.2843C1.21271 21.2843 1.10575 21.2378 1.01274 21.1448L0.315199 20.4473C0.222193 20.3543 0.17569 20.2473 0.17569 20.1264C0.17569 20.0055 0.222193 19.8986 0.315199 19.8056L5.7979 14.3229L0.315199 8.84015C0.222193 8.74715 0.17569 8.64019 0.17569 8.51928C0.17569 8.39837 0.222193 8.29142 0.315199 8.19841L1.01274 7.50087C1.10575 7.40786 1.21271 7.36136 1.33361 7.36136C1.45452 7.36136 1.56148 7.40786 1.65448 7.50087L8.1556 14.002Z" fill="#FE402A"/>
</g>
<defs>
<clipPath id="clip0_11_377">
<rect width="8.94" height="25" fill="white" transform="matrix(1 0 0 -1 0.169983 25.93)"/>
</clipPath>
</defs>
</svg>
